<svg xmlns="http://www.w3.org/2000/svg" viewBox="0 0 256 199" role="img" aria-label="Discord Logo">
  <path fill="#EAF7FF" d="M216.8 16.6C200.7 9.1 183.4 3.7 165.3 0c-2.3 4.2-4.9 9.9-6.7 14.4-19.7-3-39.3-3-58.6 0-1.8-4.5-4.5-10.2-6.8-14.4-18.8 3.2-36.7 8.8-53.4 16.6C6.1 67-.6 116.2 4 164.8c22.3 16.3 43.9 26.2 65.1 32.7 5.2-7.1 9.8-14.7 13.5-22.7-7.4-2.8-14.5-6.2-21.3-10.2 1.8-1.3 3.5-2.7 5.2-4.1 41 19.2 85.3 19.2 125.8 0 1.7 1.4 3.4 2.8 5.2 4.1-6.8 4-13.9 7.4-21.4 10.2 3.7 8 8.3 15.6 13.5 22.7 21.2-6.5 42.8-16.4 65.1-32.7 5.5-56.4-9.4-105.1-38.1-148.2zM85.2 127.3c-12.3 0-22.3-11.3-22.3-25.1 0-13.8 9.8-25.1 22.3-25.1 12.5 0 22.5 11.3 22.3 25.1 0 13.8-9.8 25.1-22.3 25.1zm85.6 0c-12.3 0-22.3-11.3-22.3-25.1 0-13.8 9.8-25.1 22.3-25.1 12.5 0 22.5 11.3 22.3 25.1 0 13.8-9.8 25.1-22.3 25.1z"/>
</svg>
